<svg id="Layer_1" data-name="Layer 1" xmlns="http://www.w3.org/2000/svg" xmlns:xlink="http://www.w3.org/1999/xlink" viewBox="0 0 600 600"><defs><style>.cls-1{fill:none;}.cls-2{fill:#fff;}.cls-3{fill:url(#linear-gradient);}</style><linearGradient id="linear-gradient" x1="380.49" y1="246.53" x2="496.14" y2="246.53" gradientTransform="translate(-0.01 2.34)" gradientUnits="userSpaceOnUse"><stop offset="0" stop-color="#ac4bff"/><stop offset="0.47" stop-color="#85f"/><stop offset="1" stop-color="#625fff"/></linearGradient></defs><rect class="cls-1" width="600" height="600"/><path class="cls-2" d="M473.74,453.23a6,6,0,0,1-4.93-2.57L372.9,313.08a6.13,6.13,0,0,1-1-2.53L365.22,267,236.93,161.5,159.62,332.88a6,6,0,0,1-5.46,3.54h0a6,6,0,0,1-5.46-3.51L136,305.13,53.82,448.88a6,6,0,0,1-10.42-6l88-153.91a6,6,0,0,1,10.67.48l12.06,26.4,75.1-166.48a6,6,0,0,1,9.28-2.16L374.62,259.14a6,6,0,0,1,2.12,3.73l6.81,44.49L478.66,443.8a6,6,0,0,1-4.92,9.43Z"/><path class="cls-2" d="M551.39,453.28a6,6,0,0,1-4.53-2.07L451.91,341.8c-26.45-13.37-52.68-27.95-78-43.34a6,6,0,1,1,6.23-10.25c25.38,15.43,51.7,30,78.22,43.4A5.93,5.93,0,0,1,460.2,333l95.72,110.3a6,6,0,0,1-4.53,9.94Z"/><path class="cls-2" d="M448,412.58a4.87,4.87,0,0,1-.66,0,6,6,0,0,1-5.31-6.62l7.29-66.35a6,6,0,1,1,11.93,1.31L454,407.23A6,6,0,0,1,448,412.58Z"/><path class="cls-2" d="M406.5,454.12a6,6,0,0,1-5.15-2.9L347,361.08c-.43,27.58.35,55.93,1.1,83.53a6,6,0,0,1-12,.33c-.94-34.66-1.92-70.5-.53-104.75a6,6,0,0,1,11.13-2.85L411.63,445a6,6,0,0,1-5.13,9.1Z"/><path class="cls-2" d="M249.3,452.54a5.84,5.84,0,0,1-2.15-.4,6,6,0,0,1-3.45-7.75l47.16-122.76-39-31.37a6,6,0,0,1-2.17-3.79L230.19,156.61a6,6,0,0,1,11.87-1.78l19.11,127.55L301.79,315a6,6,0,0,1,1.85,6.84L254.91,448.69A6,6,0,0,1,249.3,452.54Z"/><path class="cls-2" d="M184.5,450.28a6,6,0,0,1-5.12-9.13L203.23,402l-47.59-31.17a6,6,0,0,1-2.65-4.17l-5.3-37.13a6,6,0,1,1,11.88-1.69l4.92,34.44,50.18,32.86a6,6,0,0,1,1.84,8.15L189.63,447.4A6,6,0,0,1,184.5,450.28Z"/><path class="cls-3" d="M496.13,232.85c0,43.3-38.75,77.26-52.81,88.15a8.19,8.19,0,0,1-10,0c-14.05-10.89-52.81-44.85-52.81-88.15a57.82,57.82,0,0,1,115.64,0Z"/><circle class="cls-2" cx="438.31" cy="232.44" r="30.67"/></svg>