<svg xmlns="http://www.w3.org/2000/svg" xmlns:xlink="http://www.w3.org/1999/xlink" viewBox="0 0 403.76 102.13"><defs><style>.cls-1{fill:none;}.cls-2{fill:#fff;}.cls-3{fill:url(#linear-gradient);}.cls-4{clip-path:url(#clip-path);}.cls-5{fill:#ac4bff;}.cls-6{fill:#ab4bff;}.cls-7{fill:#aa4cff;}.cls-8{fill:#a94cff;}.cls-9{fill:#a84cff;}.cls-10{fill:#a74cff;}.cls-11{fill:#a54dff;}.cls-12{fill:#a44dff;}.cls-13{fill:#a34dff;}.cls-14{fill:#a24eff;}.cls-15{fill:#a14eff;}.cls-16{fill:#a04eff;}.cls-17{fill:#9f4fff;}.cls-18{fill:#9e4fff;}.cls-19{fill:#9d4fff;}.cls-20{fill:#9c4fff;}.cls-21{fill:#9b50ff;}.cls-22{fill:#9a50ff;}.cls-23{fill:#9950ff;}.cls-24{fill:#9851ff;}.cls-25{fill:#9651ff;}.cls-26{fill:#9551ff;}.cls-27{fill:#9451ff;}.cls-28{fill:#9352ff;}.cls-29{fill:#9252ff;}.cls-30{fill:#9152ff;}.cls-31{fill:#9053ff;}.cls-32{fill:#8f53ff;}.cls-33{fill:#8e53ff;}.cls-34{fill:#8d53ff;}.cls-35{clip-path:url(#clip-path-2);}.cls-36{fill:#8655ff;}.cls-37{fill:#8556ff;}.cls-38{fill:#8456ff;}.cls-39{fill:#8356ff;}.cls-40{fill:#8256ff;}.cls-41{fill:#8157ff;}.cls-42{fill:#7f57ff;}.cls-43{fill:#7e57ff;}.cls-44{fill:#7d58ff;}.cls-45{fill:#7c58ff;}.cls-46{fill:#7b58ff;}.cls-47{fill:#7a58ff;}.cls-48{fill:#7959ff;}.cls-49{fill:#85f;}.cls-50{fill:#8755ff;}.cls-51{fill:#7859ff;}.cls-52{fill:#7759ff;}.cls-53{fill:#7659ff;}.cls-54{clip-path:url(#clip-path-3);}.cls-55{fill:#6f5cff;}.cls-56{fill:#6e5cff;}.cls-57{fill:#6d5cff;}.cls-58{fill:#6c5cff;}.cls-59{fill:#6b5dff;}.cls-60{fill:#6a5dff;}.cls-61{fill:#695dff;}.cls-62{fill:#685dff;}.cls-63{fill:#675eff;}.cls-64{fill:#665eff;}.cls-65{fill:#655eff;}.cls-66{fill:#645eff;}.cls-67{fill:#645fff;}.cls-68{fill:#715bff;}.cls-69{fill:#705bff;}.cls-70{fill:#635fff;}.cls-71{fill:#625fff;}</style><linearGradient id="linear-gradient" x1="101.16" y1="28.49" x2="135.78" y2="28.49" gradientTransform="translate(-0.01 2.34)" gradientUnits="userSpaceOnUse"><stop offset="0" stop-color="#ac4bff"/><stop offset="0.47" stop-color="#85f"/><stop offset="1" stop-color="#625fff"/></linearGradient><clipPath id="clip-path"><path class="cls-1" d="M278.22,50.93l.13,6a13.68,13.68,0,0,1,5.13-5,14,14,0,0,1,6.84-1.68q8.74,0,11.1,7.18a14,14,0,0,1,5.3-5.32A14.7,14.7,0,0,1,314,50.24q11.9,0,12.13,13V87.91h-4.1V63.54q0-5-2.14-7.35c-1.4-1.6-3.68-2.39-6.85-2.39a10.85,10.85,0,0,0-7.45,2.85,10.1,10.1,0,0,0-3.39,6.79V87.91h-4.1V63.23q0-4.75-2.24-7.09t-6.78-2.34a10.29,10.29,0,0,0-6.63,2.2,12.83,12.83,0,0,0-4.1,6.55V87.91h-4.11v-37Z"/></clipPath><clipPath id="clip-path-2"><path class="cls-1" d="M359.87,87.91a19.2,19.2,0,0,1-.78-5.16,14.26,14.26,0,0,1-5.49,4.32,16.88,16.88,0,0,1-7.06,1.52,12.42,12.42,0,0,1-8.63-3,9.68,9.68,0,0,1-3.3-7.52,9.91,9.91,0,0,1,4.5-8.55q4.49-3.14,12.52-3.14h7.42v-4.2A8.08,8.08,0,0,0,356.61,56q-2.44-2.28-7.13-2.28a11.11,11.11,0,0,0-7.07,2.19,6.5,6.5,0,0,0-2.81,5.27l-4.1,0c0-2.94,1.37-5.48,4.1-7.64a15.84,15.84,0,0,1,10.09-3.23q6.18,0,9.75,3.1A11.1,11.1,0,0,1,363.12,62v17.5a21.55,21.55,0,0,0,1.13,8v.41ZM347,85a13.74,13.74,0,0,0,7.33-2,11.63,11.63,0,0,0,4.7-5.3V69.55h-7.31q-6.12.08-9.57,2.24a6.72,6.72,0,0,0-3.46,6A6.62,6.62,0,0,0,341,82.92,8.69,8.69,0,0,0,347,85Z"/></clipPath><clipPath id="clip-path-3"><path class="cls-1" d="M403.76,69.79q0,8.65-3.83,13.73a12.2,12.2,0,0,1-10.26,5.07q-7.57,0-11.62-5.33v18.87H374V50.93h3.79l.21,5.23q4-5.92,11.58-5.92a12.31,12.31,0,0,1,10.41,5q3.78,5,3.78,13.94Zm-4.1-.71q0-7.08-2.91-11.18a9.36,9.36,0,0,0-8.1-4.1,11.3,11.3,0,0,0-6.46,1.81,11.43,11.43,0,0,0-4.14,5.26V78.61a10.78,10.78,0,0,0,4.21,4.85,12.07,12.07,0,0,0,6.46,1.68,9.28,9.28,0,0,0,8-4.12C398.69,78.28,399.66,74.29,399.66,69.08Z"/></clipPath></defs><g id="Layer_2" data-name="Layer 2"><g id="Layer_1-2" data-name="Layer 1"><path class="cls-2" d="M129.07,92a1.8,1.8,0,0,1-1.48-.77L98.88,50.05a1.7,1.7,0,0,1-.3-.75l-2-13L58.17,4.68,35,56A1.79,1.79,0,0,1,33.39,57h0a1.79,1.79,0,0,1-1.63-1L28,47.68l-24.6,43a1.8,1.8,0,0,1-2.45.67,1.78,1.78,0,0,1-.67-2.45L26.58,42.85a1.8,1.8,0,0,1,3.19.14l3.61,7.91L55.86,1.06a1.79,1.79,0,0,1,1.23-1,1.77,1.77,0,0,1,1.55.36L99.4,33.91A1.82,1.82,0,0,1,100,35l2,13.32,28.47,40.85a1.79,1.79,0,0,1-.45,2.5A1.76,1.76,0,0,1,129.07,92Z"/><path class="cls-2" d="M152.32,92a1.78,1.78,0,0,1-1.36-.62L122.53,58.65c-7.91-4-15.77-8.36-23.35-13a1.8,1.8,0,1,1,1.87-3.07c7.6,4.62,15.48,9,23.42,13A1.91,1.91,0,0,1,125,56l28.65,33a1.8,1.8,0,0,1-1.35,3Z"/><path class="cls-2" d="M121.36,79.84h-.2a1.79,1.79,0,0,1-1.58-2L121.76,58a1.8,1.8,0,1,1,3.57.39l-2.18,19.86A1.8,1.8,0,0,1,121.36,79.84Z"/><path class="cls-2" d="M108.94,92.28a1.8,1.8,0,0,1-1.54-.87l-16.27-27c-.13,8.25.1,16.74.33,25a1.8,1.8,0,1,1-3.6.1c-.28-10.38-.57-21.1-.16-31.36A1.8,1.8,0,0,1,91,57.32l19.44,32.23a1.8,1.8,0,0,1-1.54,2.73Z"/><path class="cls-2" d="M61.88,91.81a1.87,1.87,0,0,1-.65-.12,1.81,1.81,0,0,1-1-2.32L74.32,52.62,62.63,43.23A1.84,1.84,0,0,1,62,42.09L56.16,3.21a1.79,1.79,0,1,1,3.55-.53l5.72,38.18,12.16,9.77a1.79,1.79,0,0,1,.55,2l-14.58,38A1.81,1.81,0,0,1,61.88,91.81Z"/><path class="cls-2" d="M42.48,91.13a1.91,1.91,0,0,1-.94-.26A1.8,1.8,0,0,1,41,88.4l7.14-11.71L33.84,67.35a1.81,1.81,0,0,1-.8-1.24L31.46,55A1.8,1.8,0,0,1,35,54.48l1.47,10.31,15,9.84a1.79,1.79,0,0,1,.55,2.44L44,90.27A1.79,1.79,0,0,1,42.48,91.13Z"/><path class="cls-3" d="M135.77,26c0,13-11.6,23.13-15.81,26.39a2.46,2.46,0,0,1-3,0C112.76,49.17,101.15,39,101.15,26a17.31,17.31,0,0,1,34.62,0Z"/><circle class="cls-2" cx="118.46" cy="25.91" r="9.18"/><path class="cls-2" d="M189.27,87.91h-4.2V38.14h4.2Z"/><path class="cls-2" d="M215.49,85.14a10.8,10.8,0,0,0,7.16-2.41,8.51,8.51,0,0,0,3.12-6.24h3.94a11.71,11.71,0,0,1-2.12,6.17A13.31,13.31,0,0,1,222.41,87a15.6,15.6,0,0,1-6.92,1.57A14.27,14.27,0,0,1,204,83.53q-4.26-5.06-4.25-13.6V68.7A23,23,0,0,1,201.61,59a14.66,14.66,0,0,1,5.49-6.5,15.17,15.17,0,0,1,8.35-2.29,14.23,14.23,0,0,1,10,3.63,13.2,13.2,0,0,1,4.23,9.53h-3.94a10.64,10.64,0,0,0-18.91-5.67q-3.06,4-3.06,11.21v1.19q0,7.08,3.06,11A10.23,10.23,0,0,0,215.49,85.14Z"/><path class="cls-2" d="M252.19,88.59a16,16,0,0,1-8.52-2.32,15.83,15.83,0,0,1-5.93-6.48,20.09,20.09,0,0,1-2.12-9.31V69a21.76,21.76,0,0,1,2.07-9.61,16.35,16.35,0,0,1,5.75-6.71,14.24,14.24,0,0,1,8-2.45,13.33,13.33,0,0,1,10.68,4.6q4,4.59,3.95,12.56v2.29H239.68v.79A15.49,15.49,0,0,0,243.29,81a11.48,11.48,0,0,0,9.08,4.19,13.32,13.32,0,0,0,5.79-1.2,12.85,12.85,0,0,0,4.56-3.82l2.57,1.94Q260.77,88.6,252.19,88.59Zm-.75-34.86a10.23,10.23,0,0,0-7.77,3.38,15.67,15.67,0,0,0-3.85,9.09H262v-.44a13.51,13.51,0,0,0-3-8.68A9.43,9.43,0,0,0,251.44,53.73Z"/><path d="M278.22,50.93l.13,6a13.68,13.68,0,0,1,5.13-5,14,14,0,0,1,6.84-1.68q8.74,0,11.1,7.18a14,14,0,0,1,5.3-5.32A14.7,14.7,0,0,1,314,50.24q11.9,0,12.13,13V87.91h-4.1V63.54q0-5-2.14-7.35c-1.4-1.6-3.68-2.39-6.85-2.39a10.85,10.85,0,0,0-7.45,2.85,10.1,10.1,0,0,0-3.39,6.79V87.91h-4.1V63.23q0-4.75-2.24-7.09t-6.78-2.34a10.29,10.29,0,0,0-6.63,2.2,12.83,12.83,0,0,0-4.1,6.55V87.91h-4.11v-37Z"/><path d="M359.87,87.91a19.2,19.2,0,0,1-.78-5.16,14.26,14.26,0,0,1-5.49,4.32,16.88,16.88,0,0,1-7.06,1.52,12.42,12.42,0,0,1-8.63-3,9.68,9.68,0,0,1-3.3-7.52,9.91,9.91,0,0,1,4.5-8.55q4.49-3.14,12.52-3.14h7.42v-4.2A8.08,8.08,0,0,0,356.61,56q-2.44-2.28-7.13-2.28a11.11,11.11,0,0,0-7.07,2.19,6.5,6.5,0,0,0-2.81,5.27l-4.1,0c0-2.94,1.37-5.48,4.1-7.64a15.84,15.84,0,0,1,10.09-3.23q6.18,0,9.75,3.1A11.1,11.1,0,0,1,363.12,62v17.5a21.55,21.55,0,0,0,1.13,8v.41ZM347,85a13.74,13.74,0,0,0,7.33-2,11.63,11.63,0,0,0,4.7-5.3V69.55h-7.31q-6.12.08-9.57,2.24a6.72,6.72,0,0,0-3.46,6A6.62,6.62,0,0,0,341,82.92,8.69,8.69,0,0,0,347,85Z"/><path d="M403.76,69.79q0,8.65-3.83,13.73a12.2,12.2,0,0,1-10.26,5.07q-7.57,0-11.62-5.33v18.87H374V50.93h3.79l.21,5.23q4-5.92,11.58-5.92a12.31,12.31,0,0,1,10.41,5q3.78,5,3.78,13.94Zm-4.1-.71q0-7.08-2.91-11.18a9.36,9.36,0,0,0-8.1-4.1,11.3,11.3,0,0,0-6.46,1.81,11.43,11.43,0,0,0-4.14,5.26V78.61a10.78,10.78,0,0,0,4.21,4.85,12.07,12.07,0,0,0,6.46,1.68,9.28,9.28,0,0,0,8-4.12C398.69,78.28,399.66,74.29,399.66,69.08Z"/><g class="cls-4"><path class="cls-5" d="M274.28,50.24v0Z"/><rect class="cls-5" x="274.28" y="50.24" width="1.75" height="37.67"/><rect class="cls-6" x="276.03" y="50.24" width="1.75" height="37.67"/><rect class="cls-7" x="277.78" y="50.24" width="1.75" height="37.67"/><rect class="cls-8" x="279.53" y="50.24" width="1.75" height="37.67"/><rect class="cls-9" x="281.28" y="50.24" width="1.75" height="37.67"/><rect class="cls-10" x="283.03" y="50.24" width="1.75" height="37.67"/><rect class="cls-11" x="284.78" y="50.24" width="1.75" height="37.67"/><rect class="cls-12" x="286.53" y="50.24" width="1.75" height="37.67"/><rect class="cls-13" x="288.28" y="50.24" width="1.75" height="37.67"/><rect class="cls-14" x="290.03" y="50.24" width="1.75" height="37.67"/><rect class="cls-15" x="291.78" y="50.24" width="1.75" height="37.67"/><rect class="cls-16" x="293.53" y="50.24" width="1.75" height="37.67"/><rect class="cls-17" x="295.28" y="50.24" width="1.75" height="37.67"/><rect class="cls-18" x="297.03" y="50.24" width="1.75" height="37.67"/><rect class="cls-19" x="298.78" y="50.24" width="1.75" height="37.67"/><rect class="cls-20" x="300.53" y="50.24" width="1.75" height="37.67"/><rect class="cls-21" x="302.28" y="50.24" width="1.75" height="37.67"/><rect class="cls-22" x="304.03" y="50.24" width="1.75" height="37.67"/><rect class="cls-23" x="305.78" y="50.24" width="1.75" height="37.67"/><rect class="cls-24" x="307.53" y="50.24" width="1.75" height="37.67"/><rect class="cls-25" x="309.28" y="50.24" width="1.75" height="37.67"/><rect class="cls-26" x="311.03" y="50.24" width="1.75" height="37.67"/><rect class="cls-27" x="312.78" y="50.24" width="1.75" height="37.67"/><rect class="cls-28" x="314.53" y="50.24" width="1.75" height="37.67"/><rect class="cls-29" x="316.28" y="50.24" width="1.75" height="37.67"/><rect class="cls-30" x="318.03" y="50.24" width="1.75" height="37.67"/><rect class="cls-31" x="319.77" y="50.24" width="1.75" height="37.67"/><rect class="cls-32" x="321.52" y="50.24" width="1.75" height="37.67"/><rect class="cls-33" x="323.27" y="50.24" width="1.75" height="37.67"/><rect class="cls-34" x="325.02" y="50.24" width="1.15" height="37.67"/></g><g class="cls-35"><rect class="cls-36" x="338.71" y="69.55" width="0.31" height="15.42"/><rect class="cls-37" x="339.02" y="69.55" width="1.75" height="15.42"/><rect class="cls-38" x="340.77" y="69.55" width="1.75" height="15.42"/><rect class="cls-39" x="342.52" y="69.55" width="1.75" height="15.42"/><rect class="cls-40" x="344.27" y="69.55" width="1.75" height="15.42"/><rect class="cls-41" x="346.02" y="69.55" width="1.75" height="15.42"/><rect class="cls-42" x="347.77" y="69.55" width="1.75" height="15.42"/><rect class="cls-43" x="349.52" y="69.55" width="1.75" height="15.42"/><rect class="cls-44" x="351.27" y="69.55" width="1.75" height="15.42"/><rect class="cls-45" x="353.02" y="69.55" width="1.75" height="15.42"/><rect class="cls-46" x="354.77" y="69.55" width="1.75" height="15.42"/><rect class="cls-47" x="356.52" y="69.55" width="1.75" height="15.42"/><rect class="cls-48" x="358.27" y="69.55" width="0.78" height="15.42"/><rect class="cls-49" x="334.61" y="50.24" width="0.91" height="38.35"/><rect class="cls-50" x="335.52" y="50.24" width="1.75" height="38.35"/><rect class="cls-36" x="337.27" y="50.24" width="1.75" height="38.35"/><rect class="cls-37" x="339.02" y="50.24" width="1.75" height="38.35"/><rect class="cls-38" x="340.77" y="50.24" width="1.75" height="38.35"/><rect class="cls-39" x="342.52" y="50.24" width="1.75" height="38.35"/><rect class="cls-40" x="344.27" y="50.24" width="1.75" height="38.35"/><rect class="cls-41" x="346.02" y="50.24" width="1.75" height="38.35"/><rect class="cls-42" x="347.77" y="50.24" width="1.75" height="38.35"/><rect class="cls-43" x="349.52" y="50.24" width="1.75" height="38.35"/><rect class="cls-44" x="351.27" y="50.24" width="1.75" height="38.35"/><rect class="cls-45" x="353.02" y="50.24" width="1.75" height="38.35"/><rect class="cls-46" x="354.77" y="50.24" width="1.75" height="38.35"/><rect class="cls-47" x="356.52" y="50.24" width="1.75" height="38.35"/><rect class="cls-48" x="358.27" y="50.24" width="1.75" height="38.35"/><rect class="cls-51" x="360.02" y="50.24" width="1.75" height="38.35"/><rect class="cls-52" x="361.77" y="50.24" width="1.75" height="38.35"/><rect class="cls-53" x="363.52" y="50.24" width="0.73" height="38.35"/></g><g class="cls-54"><rect class="cls-55" x="378.05" y="53.8" width="1.21" height="31.34"/><rect class="cls-56" x="379.26" y="53.8" width="1.75" height="31.34"/><rect class="cls-57" x="381.01" y="53.8" width="1.75" height="31.34"/><rect class="cls-58" x="382.76" y="53.8" width="1.75" height="31.34"/><rect class="cls-59" x="384.51" y="53.8" width="1.75" height="31.34"/><rect class="cls-60" x="386.26" y="53.8" width="1.75" height="31.34"/><rect class="cls-61" x="388.01" y="53.8" width="1.75" height="31.34"/><rect class="cls-62" x="389.76" y="53.8" width="1.75" height="31.34"/><rect class="cls-63" x="391.51" y="53.8" width="1.75" height="31.34"/><rect class="cls-64" x="393.26" y="53.8" width="1.75" height="31.34"/><rect class="cls-65" x="395.01" y="53.8" width="1.75" height="31.34"/><rect class="cls-66" x="396.76" y="53.8" width="1.75" height="31.34"/><rect class="cls-67" x="398.51" y="53.8" width="1.15" height="31.34"/><rect class="cls-68" x="373.99" y="50.24" width="0.03" height="51.88"/><rect class="cls-69" x="374.01" y="50.24" width="1.75" height="51.88"/><rect class="cls-69" x="375.76" y="50.24" width="1.75" height="51.88"/><rect class="cls-55" x="377.51" y="50.24" width="1.75" height="51.88"/><rect class="cls-56" x="379.26" y="50.24" width="1.75" height="51.88"/><rect class="cls-57" x="381.01" y="50.24" width="1.75" height="51.88"/><rect class="cls-58" x="382.76" y="50.24" width="1.75" height="51.88"/><rect class="cls-59" x="384.51" y="50.24" width="1.75" height="51.88"/><rect class="cls-60" x="386.26" y="50.24" width="1.75" height="51.88"/><rect class="cls-61" x="388.01" y="50.24" width="1.75" height="51.88"/><rect class="cls-62" x="389.76" y="50.24" width="1.75" height="51.88"/><rect class="cls-63" x="391.51" y="50.24" width="1.75" height="51.88"/><rect class="cls-64" x="393.26" y="50.24" width="1.75" height="51.88"/><rect class="cls-65" x="395.01" y="50.24" width="1.75" height="51.88"/><rect class="cls-66" x="396.76" y="50.24" width="1.75" height="51.88"/><rect class="cls-67" x="398.51" y="50.24" width="1.75" height="51.88"/><rect class="cls-70" x="400.26" y="50.24" width="1.75" height="51.88"/><rect class="cls-71" x="402.01" y="50.24" width="1.75" height="51.88"/><path class="cls-71" d="M403.76,102.13v0Z"/></g></g></g></svg>